<?xml version="1.0" encoding="utf-8"?>
<svg width="48px" height="48px" viewBox="0 0 48 48" version="1.1" xmlns:xlink="http://www.w3.org/1999/xlink" xmlns="http://www.w3.org/2000/svg">
  <defs>
    <path d="M0 0L48 0L48 48L0 48L0 0Z" id="path_1" />
    <path d="M37.15 16.45C36.2833 17.3167 35.3167 17.9583 34.25 18.375C33.1833 18.7917 32.0833 19 30.95 19C29.8167 19 28.7167 18.7917 27.65 18.375C26.5833 17.9583 25.6167 17.3167 24.75 16.45L21 12.7C20.4333 12.1333 19.8083 11.7167 19.125 11.45C18.4417 11.1833 17.7333 11.05 17 11.05C16.2667 11.05 15.5583 11.1833 14.875 11.45C14.1917 11.7167 13.5667 12.1333 13 12.7L9.60001 16.1L7.45001 13.95L10.85 10.55C11.7167 9.68333 12.6833 9.04167 13.75 8.625C14.8167 8.20833 15.9 8 17 8C18.1 8 19.175 8.20833 20.225 8.625C21.275 9.04167 22.2333 9.68333 23.1 10.55L26.85 14.3C27.4167 14.8667 28.0417 15.2917 28.725 15.575C29.4083 15.8583 30.1333 16 30.9 16C31.6667 16 32.4 15.8583 33.1 15.575C33.8 15.2917 34.4333 14.8667 35 14.3L38.4 10.9L40.55 13.05L37.15 16.45ZM37.15 26.95C36.2833 27.8167 35.3167 28.4583 34.25 28.875C33.1833 29.2917 32.0833 29.5 30.95 29.5C29.8167 29.5 28.7167 29.2917 27.65 28.875C26.5833 28.4583 25.6167 27.8167 24.75 26.95L21 23.2C20.4333 22.6333 19.8083 22.2167 19.125 21.95C18.4417 21.6833 17.7333 21.55 17 21.55C16.2667 21.55 15.5583 21.6833 14.875 21.95C14.1917 22.2167 13.5667 22.6333 13 23.2L9.60001 26.6L7.45001 24.5L10.85 21.05C11.7167 20.1833 12.6833 19.5417 13.75 19.125C14.8167 18.7083 15.9 18.5 17 18.5C18.1 18.5 19.175 18.7083 20.225 19.125C21.275 19.5417 22.2333 20.1833 23.1 21.05L26.85 24.8C27.4167 25.3667 28.05 25.7917 28.75 26.075C29.45 26.3583 30.1833 26.5 30.95 26.5C31.7167 26.5 32.4417 26.3583 33.125 26.075C33.8083 25.7917 34.4333 25.3667 35 24.8L38.4 21.4L40.55 23.55L37.15 26.95ZM37.1 37.45C36.2334 38.3167 35.275 38.9583 34.225 39.375C33.175 39.7917 32.0834 40 30.95 40C29.8167 40 28.7167 39.7917 27.65 39.375C26.5833 38.9583 25.6167 38.3167 24.75 37.45L20.95 33.7C20.3833 33.1333 19.7583 32.7167 19.075 32.45C18.3917 32.1833 17.6833 32.05 16.95 32.05C16.2167 32.05 15.5083 32.1833 14.825 32.45C14.1417 32.7167 13.5167 33.1333 12.95 33.7L9.55001 37.1L7.45001 35L10.85 31.55C11.7167 30.6833 12.675 30.0417 13.725 29.625C14.775 29.2083 15.85 29 16.95 29C18.05 29 19.1333 29.2083 20.2 29.625C21.2667 30.0417 22.2333 30.6833 23.1 31.55L26.85 35.3C27.4167 35.8667 28.05 36.2917 28.75 36.575C29.45 36.8583 30.1833 37 30.95 37C31.7167 37 32.4417 36.8583 33.125 36.575C33.8083 36.2917 34.4333 35.8667 35 35.3L38.4 31.9L40.5 34.05L37.1 37.45Z" id="path_2" />
    <clipPath id="clip_1">
      <use xlink:href="#path_1" />
    </clipPath>
  </defs>
  <g id="airwave_FILL0_wght400_GRAD0_opsz48" clip-path="url(#clip_1)">
    <path d="M0 0L48 0L48 48L0 48L0 0Z" id="airwave_FILL0_wght400_GRAD0_opsz48" fill="none" fill-rule="evenodd" stroke="none" />
    <g id="Shape">
      <use xlink:href="#path_2" fill="none" stroke="#0000FF" stroke-width="2" />
      <use stroke="none" fill="#FFFF00" xlink:href="#path_2" fill-rule="evenodd" />
    </g>
  </g>
</svg>